#N canvas 711 80 452 553 10;
#X msg 116 452 close;
#X msg 106 409 devices;
#X obj 86 514 print INPUT;
#X obj 174 406 loadbang;
#X obj 174 430 delay 2000;
#N canvas 177 259 586 440 driver 0;
#X msg 81 162 246;
#X obj 54 131 t f b;
#X obj 54 92 inlet;
#X obj 285 371 outlet;
#X obj 100 131 t f b;
#X obj 143 131 t f b;
#X msg 127 162 247;
#X msg 170 163 248;
#X obj 185 131 t f b;
#X obj 228 131 t f b;
#X obj 274 131 t f b;
#X obj 320 131 t f b;
#X msg 212 162 249;
#X msg 255 163 250;
#X msg 301 162 251;
#X msg 347 163 252;
#X obj 368 131 t f b;
#X obj 417 131 t f b;
#X obj 466 131 t f b;
#X msg 395 162 253;
#X msg 444 163 254;
#X msg 493 162 255;
#X obj 285 338 pack f f;
#X obj 100 92 inlet;
#X obj 143 92 inlet;
#X obj 185 92 inlet;
#X obj 228 92 inlet;
#X obj 274 92 inlet;
#X obj 320 92 inlet;
#X obj 368 92 inlet;
#X obj 417 92 inlet;
#X obj 466 92 inlet;
#X text 54 24 ID1 = 246;
#X text 54 34 ID2 = 247;
#X text 54 44 ID3 = 248;
#X text 54 54 ID4 = 249;
#X connect 0 0 22 1;
#X connect 1 0 22 0;
#X connect 1 1 0 0;
#X connect 2 0 1 0;
#X connect 4 0 22 0;
#X connect 4 1 6 0;
#X connect 5 0 22 0;
#X connect 5 1 7 0;
#X connect 6 0 22 1;
#X connect 7 0 22 1;
#X connect 8 0 22 0;
#X connect 8 1 12 0;
#X connect 9 0 22 0;
#X connect 9 1 13 0;
#X connect 10 0 22 0;
#X connect 10 1 14 0;
#X connect 11 0 22 0;
#X connect 11 1 15 0;
#X connect 12 0 22 1;
#X connect 13 0 22 1;
#X connect 14 0 22 1;
#X connect 15 0 22 1;
#X connect 16 0 22 0;
#X connect 16 1 19 0;
#X connect 17 0 22 0;
#X connect 17 1 20 0;
#X connect 18 0 22 0;
#X connect 18 1 21 0;
#X connect 19 0 22 1;
#X connect 20 0 22 1;
#X connect 21 0 22 1;
#X connect 22 0 3 0;
#X connect 23 0 4 0;
#X connect 24 0 5 0;
#X connect 25 0 8 0;
#X connect 26 0 9 0;
#X connect 27 0 10 0;
#X connect 28 0 11 0;
#X connect 29 0 16 0;
#X connect 30 0 17 0;
#X connect 31 0 18 0;
#X restore 86 361 pd driver _____________________________;
#X obj 86 70 f;
#X obj 116 70 + 1;
#X obj 146 70 % 10;
#X obj 86 92 + 1;
#X obj 86 23 tgl 15 0 empty empty empty 17 7 0 10 -262144 -1 -1 1 1
;
#X obj 86 115 sel 1 2 3 4 5 6 7 8 9 10;
#X obj 98 385 print OUT;
#X msg 174 452 open 0;
#X obj 86 486 comport 1 19200;
#X obj 86 324 trig 200;
#X obj 100 303 trig 200;
#X obj 114 284 trig 200;
#X obj 128 263 trig 200;
#X obj 143 241 trig 200;
#X obj 156 221 trig 200;
#X obj 170 199 trig 200;
#X obj 184 178 trig 200;
#X obj 198 157 trig 200;
#X obj 212 136 trig 200;
#X msg 335 224 400;
#X obj 87 44 metro 500;
#X obj 51 248 bng 15 250 50 0 empty empty 11 17 7 0 10 -262144 -1 -1
;
#X obj 46 291 bng 15 250 50 0 empty empty empty 17 7 0 10 -262144 -1
-1;
#X connect 0 0 14 0;
#X connect 1 0 14 0;
#X connect 3 0 4 0;
#X connect 4 0 13 0;
#X connect 5 0 12 0;
#X connect 5 0 14 0;
#X connect 6 0 7 0;
#X connect 6 0 9 0;
#X connect 7 0 8 0;
#X connect 8 0 6 1;
#X connect 9 0 11 0;
#X connect 10 0 26 0;
#X connect 11 0 15 0;
#X connect 11 1 16 0;
#X connect 11 2 17 0;
#X connect 11 3 18 0;
#X connect 11 4 19 0;
#X connect 11 5 20 0;
#X connect 11 6 21 0;
#X connect 11 7 22 0;
#X connect 11 8 23 0;
#X connect 11 9 24 0;
#X connect 13 0 14 0;
#X connect 14 0 2 0;
#X connect 15 0 5 0;
#X connect 16 0 5 1;
#X connect 17 0 5 2;
#X connect 18 0 5 3;
#X connect 19 0 5 4;
#X connect 20 0 5 5;
#X connect 21 0 5 6;
#X connect 22 0 5 7;
#X connect 23 0 5 8;
#X connect 24 0 5 9;
#X connect 25 0 24 1;
#X connect 25 0 23 1;
#X connect 25 0 22 1;
#X connect 25 0 21 1;
#X connect 25 0 20 1;
#X connect 25 0 19 1;
#X connect 25 0 18 1;
#X connect 25 0 17 1;
#X connect 25 0 16 1;
#X connect 25 0 15 1;
#X connect 26 0 6 0;
#X connect 27 0 18 0;
#X connect 28 0 17 0;
