#N canvas 1 92 450 300 10;
#X msg 82 103 245;
#X text 117 105 <-- MAX VAL IS 245!;
#X obj 55 68 t b b;
#X msg 55 161 0;
#X obj 55 33 inlet;
#X obj 82 213 outlet;
#X obj 154 29 inlet;
#X obj 55 138 del \$1;
#X connect 0 0 5 0;
#X connect 2 0 7 0;
#X connect 2 1 0 0;
#X connect 3 0 5 0;
#X connect 4 0 2 0;
#X connect 6 0 7 1;
#X connect 7 0 3 0;
